<svg width="130.000000" height="17.000000" viewBox="0 0 130 17" fill="none" xmlns="http://www.w3.org/2000/svg" xmlns:xlink="http://www.w3.org/1999/xlink">
	<desc>
			Created with Pixso.
	</desc>
	<defs/>
	<path id="4.8" d="M124.66 2.41Q123.66 2.02 122.42 2.02Q121.21 2.02 120.21 2.41Q119.33 2.76 118.76 3.38Q118.69 3.47 118.61 3.56Q118.51 3.69 118.42 3.84Q118.02 4.51 118.02 5.43Q118.02 6.3 118.35 6.96Q118.46 7.2 118.61 7.42Q118.87 7.8 119.23 8.12Q119.79 8.62 120.46 9.02Q119.68 9.38 119.03 9.9Q119.02 9.91 119.01 9.91Q118.57 10.27 118.25 10.71Q118.09 10.93 117.96 11.16Q117.57 11.89 117.57 12.87Q117.57 13.97 118.05 14.79Q118.09 14.85 118.14 14.92Q118.19 15 118.24 15.07Q118.8 15.81 119.8 16.23Q120.89 16.69 122.44 16.69Q123.89 16.69 124.97 16.22Q125.88 15.82 126.46 15.14Q126.57 15.01 126.67 14.87Q126.78 14.71 126.87 14.54Q127.28 13.78 127.28 12.79Q127.28 11.89 126.89 11.21Q126.87 11.17 126.84 11.12Q126.8 11.06 126.76 10.99Q126.34 10.36 125.7 9.88Q124.99 9.35 124.15 8.94Q124.9 8.57 125.51 8.08Q126.01 7.68 126.34 7.17Q126.41 7.06 126.47 6.95Q126.83 6.31 126.83 5.44Q126.83 4.48 126.4 3.78Q126.33 3.67 126.24 3.56Q126.15 3.44 126.06 3.34Q125.51 2.74 124.66 2.41ZM108.15 13.36L110.08 13.36L110.08 11.46L108.15 11.46L108.15 2.18L105.91 2.18L99.39 11.62L99.39 13.36L105.88 13.36L105.88 16.5L108.15 16.5L108.15 13.36ZM120.88 4.23Q121.48 3.79 122.4 3.79Q123.38 3.79 123.99 4.25Q124.21 4.42 124.35 4.64Q124.6 5.02 124.6 5.58Q124.6 6.19 124.33 6.63Q124.32 6.64 124.31 6.65L124.31 6.65Q124.02 7.09 123.54 7.41Q123.06 7.73 122.46 7.99Q121.85 7.72 121.34 7.4Q120.83 7.08 120.53 6.64Q120.5 6.6 120.48 6.56Q120.23 6.14 120.23 5.59Q120.23 5.02 120.5 4.62Q120.64 4.41 120.85 4.25Q120.86 4.24 120.88 4.23ZM105.88 7.91L105.88 11.46L101.52 11.46L105.03 6.36Q105.28 5.98 105.51 5.57Q105.73 5.17 105.92 4.78L106 4.78Q105.99 5.01 105.97 5.37Q105.95 5.72 105.93 6.14Q105.91 6.56 105.89 7.02Q105.88 7.47 105.88 7.91ZM119.97 13.74Q119.76 13.31 119.76 12.78Q119.76 12.21 119.98 11.76Q120.02 11.69 120.05 11.62Q120.35 11.11 120.9 10.71Q121.45 10.3 122.21 9.98L122.52 10.11Q123.22 10.43 123.8 10.81Q124.39 11.18 124.73 11.66Q124.85 11.83 124.93 12.02Q125.08 12.36 125.08 12.76Q125.08 13.36 124.83 13.81Q124.66 14.1 124.4 14.34Q123.71 14.93 122.4 14.93Q121.08 14.93 120.42 14.33Q120.13 14.06 119.97 13.74ZM112.52 14.19Q112.14 14.52 112.14 15.28Q112.14 16.02 112.51 16.37Q112.53 16.39 112.55 16.41Q112.68 16.51 112.82 16.59Q113.15 16.76 113.57 16.76Q113.97 16.76 114.3 16.6Q114.45 16.52 114.59 16.41Q114.62 16.38 114.65 16.35Q115.01 16 115.01 15.28Q115.01 14.53 114.64 14.2Q114.61 14.18 114.59 14.16Q114.48 14.07 114.36 14.01Q114.01 13.83 113.57 13.83Q113.11 13.83 112.75 14.02Q112.65 14.08 112.55 14.16Q112.54 14.17 112.52 14.19Z" fill="#323232" fill-opacity="1.000000" fill-rule="evenodd"/>
	<path id="Vector" d="M12.97 6.91C12.92 6.73 12.77 6.61 12.6 6.58L8.67 5.98L6.91 2.24C6.76 1.91 6.24 1.91 6.08 2.24L4.32 5.98L0.39 6.58C0.22 6.61 0.07 6.73 0.02 6.91C-0.04 7.09 0.01 7.28 0.14 7.41L2.98 10.32L2.31 14.43C2.28 14.61 2.35 14.79 2.49 14.9C2.64 15.01 2.82 15.03 2.98 14.94L6.5 13L10.01 14.94C10.17 15.03 10.35 15.01 10.5 14.9C10.64 14.79 10.71 14.61 10.68 14.43L10.01 10.32L12.85 7.41C12.98 7.28 13.03 7.09 12.97 6.91L12.97 6.91Z" fill="#FFB800" fill-opacity="1.000000" fill-rule="nonzero"/>
	<path id="Vector" d="M31.97 6.91C31.92 6.73 31.77 6.61 31.6 6.58L27.67 5.98L25.91 2.24C25.76 1.91 25.24 1.91 25.08 2.24L23.32 5.98L19.39 6.58C19.22 6.61 19.07 6.73 19.02 6.91C18.96 7.09 19.01 7.28 19.14 7.41L21.98 10.32L21.31 14.43C21.28 14.61 21.35 14.79 21.49 14.9C21.64 15.01 21.82 15.03 21.98 14.94L25.5 13L29.01 14.94C29.17 15.03 29.35 15.01 29.5 14.9C29.64 14.79 29.71 14.61 29.68 14.43L29.01 10.32L31.85 7.41C31.98 7.28 32.03 7.09 31.97 6.91L31.97 6.91Z" fill="#FFB800" fill-opacity="1.000000" fill-rule="nonzero"/>
	<path id="Vector" d="M50.97 6.91C50.92 6.73 50.77 6.61 50.6 6.58L46.67 5.98L44.91 2.24C44.76 1.91 44.24 1.91 44.08 2.24L42.32 5.98L38.39 6.58C38.22 6.61 38.07 6.73 38.02 6.91C37.96 7.09 38.01 7.28 38.14 7.41L40.98 10.32L40.31 14.43C40.28 14.61 40.35 14.79 40.49 14.9C40.64 15.01 40.82 15.03 40.98 14.94L44.5 13L48.01 14.94C48.17 15.03 48.35 15.01 48.5 14.9C48.64 14.79 48.71 14.61 48.68 14.43L48.01 10.32L50.85 7.41C50.98 7.28 51.03 7.09 50.97 6.91L50.97 6.91Z" fill="#FFB800" fill-opacity="1.000000" fill-rule="nonzero"/>
	<path id="Vector" d="M69.97 6.91C69.92 6.73 69.77 6.61 69.6 6.58L65.67 5.98L63.91 2.24C63.76 1.91 63.24 1.91 63.08 2.24L61.32 5.98L57.39 6.58C57.22 6.61 57.07 6.73 57.02 6.91C56.96 7.09 57.01 7.28 57.14 7.41L59.98 10.32L59.31 14.43C59.28 14.61 59.35 14.79 59.49 14.9C59.64 15.01 59.82 15.03 59.98 14.94L63.5 13L67.01 14.94C67.17 15.03 67.35 15.01 67.5 14.9C67.64 14.79 67.71 14.61 67.68 14.43L67.01 10.32L69.85 7.41C69.98 7.28 70.03 7.09 69.97 6.91L69.97 6.91Z" fill="#FFB800" fill-opacity="1.000000" fill-rule="nonzero"/>
	<path id="Vector" d="M87.78 6.46L88.6 6.58C88.77 6.61 88.92 6.73 88.97 6.91L88.97 6.91L88.97 6.91L88.97 6.91C88.99 6.98 89 7.05 88.99 7.13C88.98 7.23 88.93 7.33 88.85 7.41L86.01 10.32L86.68 14.43C86.71 14.61 86.64 14.79 86.5 14.9C86.35 15.01 86.17 15.03 86.01 14.94L82.5 13L78.98 14.94C78.82 15.03 78.64 15.01 78.49 14.9C78.35 14.79 78.28 14.61 78.31 14.43L78.98 10.32L76.14 7.41C76.01 7.28 75.96 7.09 76.02 6.91C76.07 6.73 76.22 6.61 76.39 6.58L80.32 5.98L82.08 2.24C82.24 1.91 82.76 1.91 82.91 2.24L84.67 5.98L87.78 6.46ZM87.45 7.42L83.99 6.89L82.5 3.71L81 6.89L77.54 7.42L80.05 9.98L79.47 13.53L82.5 11.86L85.52 13.53L84.94 9.98L87.45 7.42Z" fill="#FFB800" fill-opacity="1.000000" fill-rule="evenodd"/>
</svg>
