<svg width="49.000000" height="69.000000" viewBox="0 0 49 69" fill="none" xmlns="http://www.w3.org/2000/svg" xmlns:xlink="http://www.w3.org/1999/xlink">
	<desc>
			Created with Pixso.
	</desc>
	<defs/>
	<path id="Vector" d="M41.99 0C45.86 0 48.99 3.08 49 6.89L49 37.93C49 41.74 45.86 44.84 41.99 44.84L15.31 44.84C15.55 45.38 15.82 45.93 16.15 46.49C18.59 50.51 23.35 55.2 38.56 55.2C47.68 55.4 47.68 68.79 38.56 69C19.96 69 8.98 61.59 4.11 53.54C0.28 47.2 -0.02 40.93 0.03 38.49C-0.03 28.01 0.01 17.41 0.01 6.89C0.01 3.08 3.14 0 7.01 0L41.99 0ZM34.99 13.79L14.01 13.79L14.01 31.03L34.99 31.03L34.99 13.79Z" fill="#FFFFFF" fill-opacity="1.000000" fill-rule="nonzero"/>
</svg>
