<svg width="37.000000" height="37.000000" viewBox="0 0 37 37" fill="none" xmlns="http://www.w3.org/2000/svg" xmlns:xlink="http://www.w3.org/1999/xlink">
	<desc>
			Created with Pixso.
	</desc>
	<defs/>
	<path id="Vector" d="M21.17 18.35C21.17 19.9 19.9 21.17 18.35 21.17C16.79 21.17 15.52 19.9 15.52 18.35C15.52 16.79 16.79 15.52 18.35 15.52C19.9 15.52 21.17 16.79 21.17 18.35Z" fill="#FFFFFF" fill-opacity="1.000000" fill-rule="nonzero"/>
	<path id="Vector" d="M18.5 0C8.25 0 0 8.25 0 18.5C0 28.74 8.25 37 18.5 37C28.74 37 37 28.74 37 18.5C37 8.25 28.74 0 18.5 0ZM8.53 9.96C8.53 9.1 9.1 8.53 9.96 8.53C10.81 8.53 11.38 9.1 11.38 9.96C11.38 10.81 10.81 11.38 9.96 11.38C9.1 11.38 8.53 10.81 8.53 9.96ZM18.64 25.75L10.81 27.89C9.81 28.17 8.82 27.18 9.1 26.18L11.24 18.35C12.23 14.94 14.8 12.23 18.21 11.38L26.04 9.25C27.03 8.96 28.03 9.96 27.75 10.95L25.61 18.78C24.76 22.05 22.05 24.76 18.64 25.75ZM27.03 28.46C26.18 28.46 25.61 27.89 25.61 27.03C25.61 26.18 26.18 25.61 27.03 25.61C27.89 25.61 28.46 26.18 28.46 27.03C28.46 27.89 27.89 28.46 27.03 28.46Z" fill="#FFFFFF" fill-opacity="1.000000" fill-rule="nonzero"/>
</svg>
